<?xml version="1.0" encoding="UTF-8"?>
<svg xmlns="http://www.w3.org/2000/svg" version="1.1" viewBox="0 0 445 80.7">
  <defs>
    <style>
      .cls-1 {
        fill: #231f20;
      }

      .cls-2 {
        fill: #fff;
      }

      .cls-3 {
        fill: #bdd85e;
      }
    </style>
  </defs>
  <!-- Generator: Adobe Illustrator 28.7.1, SVG Export Plug-In . SVG Version: 1.2.0 Build 142)  -->
  <g>
    <g id="Layer_1">
      <g>
        <g>
          <g id="_x30_rMhSj.tif">
            <g>
              <path d="M20.3,4.6c11.7,0,53.4,0,65.1,0,3.9,0,7.7,3.6,7.9,7.5,0,1.7,0,3.4,0,5.1,0,13.6,0,27.1,0,40.7,0,4.9-3.8,8.7-8.7,8.7-22.7,0-45.4,0-68.1,0-4.2,0-7.7-2.2-9-5.8-.4-1.1-.6-2.4-.6-3.6,0-14.6,0-29.2,0-43.8,0-4,2.8-7.6,6.6-8.7.5-.1,1-.1,1.4-.1,11.8,0-6.4,0,5.3,0,0,0,0,0,0,0ZM10.5,39h79.7c0-.4,0-.7,0-1,0-6.9,0-13.9,0-20.8,0-.5-.1-1-.4-1.4-1-2.1-2.5-3.1-5-3.1-22.9,0-45.9,0-68.8,0-.6,0-1.1,0-1.7,0-2.7.1-4,2.6-4,4.3,0,6.9,0,13.9,0,20.8,0,.3,0,.7,0,1.1ZM10.4,51c0,2.6-.1,5.1,0,7.5.1,2.6,2.4,4.6,4.9,4.7.7,0,1.5,0,2.2,0,21.8,0,43.7,0,65.5,0,.7,0,1.3,0,2,0,3.1-.2,5.1-2.4,5.2-5.5,0-1.1,0-2.2,0-3.2,0-1.2,0-2.3,0-3.5h-29.2c0,1.5,0,2.8-.2,4.2-.3,2.7-2,4.3-4.7,4.4-4,0-8,0-12,0-1.6,0-2.7-.7-3.7-1.9-.8-1-.9-2.1-.9-3.2,0-1.1,0-2.3,0-3.4H10.4ZM90.2,40.7H10.5v7.8h79.8v-7.8ZM80.4,7.6H20.3c0,.4,0,.6,0,.9q0,2.1,2.1,2.1c18.9,0,37.8,0,56.6,0,.5,0,.9,0,1.4,0v-3ZM57.3,51.4h-14c0,1.4,0,2.7,0,4.1,0,.3.6.9.9.9,3.8,0,7.6,0,11.4,0,1.1,0,1.6-.7,1.6-1.8,0-1,0-2,0-3.1ZM18.4,7.7c-5.4-.2-8.9,2.1-7.8,5.2,2.1-2.4,4.9-2.5,7.8-2.3v-3ZM82.4,10.5c2.9-.4,5.5.2,7.3,2.6.8-2.9-2.4-6.4-7.4-5.4,0,.8,0,1.7.1,2.7Z"/>
              <path class="cls-3" d="M10.5,39c0-.4,0-.7,0-1.1,0-6.9,0-13.9,0-20.8,0-1.7,1.3-4.2,4-4.3.6,0,1.1,0,1.7,0,22.9,0,45.9,0,68.8,0,2.5,0,4,1,5,3.1.2.4.4.9.4,1.4,0,6.9,0,13.9,0,20.8,0,.3,0,.6,0,1H10.5ZM50.2,35.2c2.6,0,4.6-2,4.6-4.7,0-2.9-1.9-5-4.6-5-2.6,0-4.9,2.1-4.9,4.7,0,2.7,2.2,5,4.9,5ZM85.9,16.8c-.7-.5-.5-.9-.9-1-.7,0-1.3.4-1.2,1.1,0,.3.7.9,1,.9.5,0,.3-.5,1-1ZM16.9,16.7c-.7-.5,0-.9-.3-.8-.5.1-.8.7-1.2,1,.3.3.7,1,1,.9.5,0-.2-.6.5-1.1Z"/>
              <path class="cls-2" d="M10.4,51h29.2c0,1.2,0,2.3,0,3.4,0,1.2.2,2.3.9,3.2.9,1.2,2.1,1.9,3.7,1.9,4,0,8,0,12,0,2.7,0,4.4-1.6,4.7-4.4.1-1.4.1-2.7.2-4.2h29.2c0,1.1,0,2.3,0,3.5,0,1.1,0,2.2,0,3.2,0,3.1-2.1,5.2-5.2,5.5-.7,0-1.3,0-2,0-21.8,0-43.7,0-65.5,0-.7,0-1.5,0-2.2,0-2.6-.1-4.8-2.2-4.9-4.7-.1-2.4,0-4.9,0-7.5Z"/>
              <path class="cls-2" d="M90.2,40.7v7.8H10.5v-7.8h79.8Z"/>
              <path class="cls-2" d="M80.4,7.6v3c-.5,0-.9,0-1.4,0-18.9,0-37.8,0-56.6,0q-2.1,0-2.1-2.1c0-.3,0-.6,0-.9h60Z"/>
              <path class="cls-2" d="M57.3,51.4c0,1.1,0,2.1,0,3.1,0,1.2-.4,1.8-1.6,1.8-3.8,0-7.6,0-11.4,0-.3,0-.9-.5-.9-.9-.1-1.3,0-2.6,0-4.1h14Z"/>
              <path class="cls-2" d="M18.4,7.7v3c-2.9-.3-5.7-.2-7.8,2.3-1.2-3.1,2.3-5.5,7.8-5.2Z"/>
              <path class="cls-2" d="M82.4,10.5c0-1,0-1.9-.1-2.7,5-1.1,8.3,2.4,7.4,5.4-1.9-2.4-4.4-3-7.3-2.6Z"/>
              <path d="M50.2,35.2c-2.7,0-4.9-2.2-4.9-5,0-2.6,2.3-4.7,4.9-4.7,2.7,0,4.7,2.2,4.6,5,0,2.7-2,4.7-4.6,4.7ZM47.7,30.3c0,1.6.9,2.6,2.5,2.6,1.4,0,2.4-1,2.4-2.6,0-1.5-.9-2.5-2.2-2.5-1.6,0-2.7,1-2.7,2.5Z"/>
              <path class="cls-2" d="M47.7,30.3c0-1.5,1.1-2.5,2.7-2.5,1.3,0,2.3,1,2.2,2.5,0,1.6-1,2.6-2.4,2.6-1.6,0-2.5-1-2.5-2.6Z"/>
            </g>
          </g>
          <g>
            <circle cx="85" cy="16.8" r="1.2"/>
            <circle cx="16.6" cy="16.8" r="1.2"/>
          </g>
        </g>
        <g>
          <path class="cls-1" d="M131.8,60.7v-8.9h7.1V15.7h-7.1V6.8h22.2c7.2,0,12.7,1.8,16.5,5.5,3.8,3.7,5.7,9.1,5.7,16.4v10.2c0,7.2-1.9,12.7-5.7,16.4-3.8,3.7-9.3,5.5-16.5,5.5h-22.2ZM149,51.4h5.1c4.1,0,7.1-1.1,9-3.2,1.9-2.2,2.8-5.2,2.8-9.1v-10.8c0-4-1-7-2.8-9.1-1.9-2.1-4.9-3.2-9-3.2h-5.1v35.4Z"/>
          <path class="cls-1" d="M202.9,61.7c-3.7,0-7-.8-10-2.3s-5.4-3.8-7.1-6.7c-1.7-2.9-2.6-6.5-2.6-10.6v-1.1c0-4.2.9-7.7,2.6-10.6,1.7-2.9,4.1-5.2,7.1-6.7,3-1.5,6.4-2.3,10-2.3s6.8.6,9.4,1.9c2.6,1.3,4.7,3,6.4,5.3s2.7,4.8,3.2,7.6l-9.4,2c-.2-1.5-.7-2.9-1.4-4.2-.7-1.2-1.7-2.2-3-2.9-1.3-.7-2.9-1.1-4.9-1.1s-3.7.4-5.3,1.3c-1.6.8-2.8,2.1-3.7,3.8-.9,1.7-1.3,3.7-1.3,6.1v.8c0,2.4.4,4.5,1.3,6.1.9,1.7,2.1,2.9,3.7,3.8,1.6.8,3.3,1.3,5.3,1.3,2.9,0,5.1-.8,6.7-2.3,1.5-1.5,2.5-3.5,2.9-6l9.4,2.2c-.7,2.7-1.8,5.2-3.4,7.4-1.6,2.2-3.7,4-6.4,5.3-2.6,1.3-5.8,1.9-9.4,1.9Z"/>
          <path class="cls-1" d="M253,61.7c-3.4,0-6.1-.6-7.9-1.8-1.8-1.2-3.2-2.5-4.1-3.9h-1.4v4.6h-9.5V6.8h9.7v20.1h1.4c.6-.9,1.3-1.8,2.3-2.6.9-.8,2.2-1.5,3.8-2,1.6-.5,3.5-.8,5.8-.8s5.9.8,8.5,2.3c2.6,1.5,4.7,3.7,6.3,6.7,1.6,2.9,2.4,6.5,2.4,10.6v1.2c0,4.2-.8,7.7-2.4,10.6-1.6,2.9-3.7,5.1-6.3,6.7-2.6,1.5-5.5,2.3-8.5,2.3ZM250.1,53.3c3,0,5.5-1,7.5-2.9s3-4.7,3-8.4v-.8c0-3.7-1-6.5-3-8.4-2-1.9-4.5-2.9-7.5-2.9s-5.5,1-7.5,2.9c-2,1.9-3,4.7-3,8.4v.8c0,3.7,1,6.5,3,8.4,2,1.9,4.5,2.9,7.5,2.9Z"/>
          <path class="cls-1" d="M283.3,76.1v-8.5h20.8c1.4,0,2.2-.8,2.2-2.3v-9.6h-1.4c-.4.9-1.1,1.7-1.9,2.6s-2.1,1.6-3.5,2.2c-1.5.6-3.4.8-5.7.8s-5.6-.7-7.8-2c-2.2-1.4-4-3.2-5.2-5.7-1.2-2.4-1.8-5.2-1.8-8.3v-22.8h9.7v22c0,2.9.7,5,2.1,6.5,1.4,1.4,3.4,2.2,6,2.2s5.3-1,6.9-3c1.6-2,2.5-4.7,2.5-8.3v-19.4h9.7v45c0,2.6-.8,4.7-2.3,6.3-1.5,1.6-3.6,2.3-6.2,2.3h-24Z"/>
          <path class="cls-1" d="M341.2,60.7c-2.5,0-4.6-.8-6.1-2.3-1.6-1.6-2.3-3.7-2.3-6.3v-21.6h-9.5v-8h9.5v-11.9h9.7v11.9h10.5v8h-10.5v19.9c0,1.5.7,2.3,2.2,2.3h7.4v8h-10.8Z"/>
          <path class="cls-1" d="M379.1,61.7c-3.8,0-7.1-.8-10-2.4-2.9-1.6-5.2-3.9-6.8-6.9-1.6-3-2.4-6.4-2.4-10.4v-.9c0-4,.8-7.5,2.4-10.4,1.6-3,3.8-5.2,6.7-6.9,2.9-1.6,6.2-2.4,10-2.4s7,.8,9.8,2.5c2.8,1.7,4.9,4,6.5,6.9,1.5,3,2.3,6.4,2.3,10.3v3.3h-27.8c.1,2.6,1.1,4.7,2.9,6.4,1.8,1.6,4.1,2.5,6.8,2.5s4.7-.6,6-1.8c1.3-1.2,2.3-2.5,2.9-3.9l7.9,4.2c-.7,1.3-1.8,2.8-3.1,4.4-1.4,1.6-3.2,2.9-5.4,4-2.3,1.1-5.1,1.7-8.6,1.7ZM369.8,37.2h17.9c-.2-2.2-1.1-4-2.7-5.3-1.6-1.3-3.6-2-6.1-2s-4.7.7-6.2,2c-1.5,1.3-2.5,3.1-2.8,5.3Z"/>
          <path class="cls-1" d="M422,61.7c-5,0-9.1-1.1-12.2-3.2-3.2-2.2-5.1-5.2-5.8-9.2l8.9-2.3c.4,1.8,1,3.2,1.8,4.2.8,1,1.9,1.8,3.2,2.2,1.3.4,2.6.7,4.1.7,2.3,0,3.9-.4,5-1.2,1.1-.8,1.6-1.8,1.6-3s-.5-2.1-1.5-2.7c-1-.6-2.7-1.2-4.9-1.6l-2.2-.4c-2.7-.5-5.1-1.2-7.3-2.1-2.2-.9-4-2.1-5.3-3.7-1.3-1.6-2-3.6-2-6.2,0-3.8,1.4-6.7,4.2-8.7,2.8-2,6.4-3,10.9-3s7.8,1,10.6,2.8c2.8,1.9,4.7,4.4,5.5,7.5l-9,2.8c-.4-2-1.2-3.3-2.5-4.2-1.3-.8-2.8-1.2-4.7-1.2s-3.3.3-4.2,1c-1,.6-1.5,1.5-1.5,2.7s.5,2.1,1.5,2.7c1,.6,2.4,1,4.2,1.3l2.2.4c2.9.5,5.5,1.2,7.8,2,2.3.8,4.2,2.1,5.5,3.6,1.4,1.6,2,3.7,2,6.4,0,4-1.5,7.1-4.4,9.3-2.9,2.2-6.8,3.3-11.7,3.3Z"/>
        </g>
      </g>
    </g>
  </g>
</svg>